<svg xmlns="http://www.w3.org/2000/svg" width="206.493" height="205.956" viewBox="0 0 206.493 205.956">
  <g id="Grupo_11" data-name="Grupo 11" transform="translate(-517.471 -897.022)">
    <g id="Grupo_10" data-name="Grupo 10">
      <g id="Grupo_4" data-name="Grupo 4">
        <path id="Trazado_8" data-name="Trazado 8" d="M620.473,937.047l-33.427-29.861h-1.04v21.69l34.711,41.892V1000l38.53-75.135V903.026H657.91Z" fill="#b3db46"/>
        <circle id="Elipse_1" data-name="Elipse 1" cx="11.458" cy="11.458" r="11.458" transform="translate(609.259 897.022)" fill="#b3db46"/>
      </g>
      <g id="Grupo_5" data-name="Grupo 5">
        <path id="Trazado_9" data-name="Trazado 9" d="M566.076,968.735,523.5,982.753l-.52.9L541.767,994.5l53.635-9.114L620.717,1000l-45.8-70.936L556,918.145l-.669,1.158Z" fill="#2ca4d8"/>
        <circle id="Elipse_2" data-name="Elipse 2" cx="11.458" cy="11.458" r="11.458" transform="translate(530 942.782)" fill="#2ca4d8"/>
      </g>
      <g id="Grupo_6" data-name="Grupo 6">
        <path id="Trazado_10" data-name="Trazado 10" d="M566.321,1031.688l-9.147,43.879.52.9,18.784-10.845,18.924-51.006L620.717,1000l-84.334,4.2-18.913,10.919.669,1.158Z" fill="#17aa98"/>
        <circle id="Elipse_3" data-name="Elipse 3" cx="11.458" cy="11.458" r="11.458" transform="translate(530 1034.302)" fill="#17aa98"/>
      </g>
      <g id="Grupo_7" data-name="Grupo 7">
        <path id="Trazado_11" data-name="Trazado 11" d="M620.962,1062.953l33.427,29.861h1.04v-21.69l-34.711-41.892V1000l-38.53,75.135v21.839h1.337Z" fill="#309c5e"/>
        <circle id="Elipse_4" data-name="Elipse 4" cx="11.458" cy="11.458" r="11.458" transform="translate(609.259 1080.062)" fill="#309c5e"/>
      </g>
      <g id="Grupo_8" data-name="Grupo 8">
        <path id="Trazado_12" data-name="Trazado 12" d="M675.358,1031.265l42.574-14.018.52-.9L699.667,1005.5l-53.635,9.114L620.717,1000l45.8,70.936,18.913,10.919.669-1.158Z" fill="#1b7548"/>
        <circle id="Elipse_5" data-name="Elipse 5" cx="11.458" cy="11.458" r="11.458" transform="translate(688.518 1034.302)" fill="#1b7548"/>
      </g>
      <g id="Grupo_9" data-name="Grupo 9">
        <path id="Trazado_13" data-name="Trazado 13" d="M675.114,968.312l9.147-43.879-.52-.9-18.784,10.845-18.924,51.006L620.717,1000l84.334-4.2,18.913-10.919-.669-1.158Z" fill="#56aa5d"/>
        <circle id="Elipse_6" data-name="Elipse 6" cx="11.458" cy="11.458" r="11.458" transform="translate(688.518 942.782)" fill="#56aa5d"/>
      </g>
    </g>
  </g>
</svg>
